<svg id="レイヤー_1" xmlns="http://www.w3.org/2000/svg" viewBox="0 0 300 250">
  <style>
    .st0{fill:#231815;}
  </style>
  <path class="st0" d="M85.1 99.2c-.5-.5.3-1.5 1-1.3.7.2 1.7.4 3 .9 1.3.4 1.7 1.1 2.7 1.8 1 .7 1.5 2.6 1.5 3.9 0 1.2.9 4 .9 4l3.6 2c.6-.8 1-1.4 1-1.4l1.7 1.3c.4-.5.7-.7.9-.7 1 .2 18.5 11 20.7 11.8 2.2.7 3.4 1.6 4.6 2.5 1.2.9 12.7 4.3 13.9 4.8 1.2.6 5.8-.3 5.8-.3s1 .1 2.3.3l-.3-.3s1.6-.4-1.5-2.1c-3-1.7-4.5-5.2-5.1-9.1-.6-4-.8-11.7 5.7-13.9 8.8-4 14.6.8 15.5 2.4.9 1.7.1 4.1.1 4.1s-.3.8.8 2.3c1.1 1.5 1.6 3.5 1.6 5 .1 1.5.2 6.3.2 6.3v1.8c2.3-.8 4.1-1.4 4.7-1.5 1.7-.4 8.1-2.2 9.7-2l1.6.3 18.7.7c3.5-.7 6.8-13.6 6.8-13.6h.9l.5-1.7s.6 0 1.6.1c.3-1.3.6-2.6.5-2.9-.2-.6-.9-2.3-.9-2.3-1.8-2-1.9-4.2-2.8-5.4-.9-1.3-1.7-3.4-2.3-4.8-.5-1.3.3-1.8 1-1.6.7.3 1.2 1.4 1.6 2.3.4.9 1.3 1.2 1.8 1.3.4.1.8-1 .4-2.5s-1.1-3.9-.9-5.1c.2-1.2 1.4-.8 1.7.5.3 1.3.7 4.6 2.2 4.2.3-.1.4-4.6.6-6.7.3-2.1 1.8-1.1 1.8.1 0 1.2-.4 6.5-.4 6.5s.4.9.9.5 1.1-3.8 1.2-4.9c.1-1.1-.2-1.8.7-2.1.9-.3 1.4.6 1.2 1.6-.2 1-.7 4.5-.7 4.8-.1.3 0 1.2.5 1.3.5.1 1.1-1.5 1.6-3.3.5-1.8 1.8-.5 1.4.4-.4.8-1 3.2-1.3 4-.3.8-1.1 5.1-1.1 6.7 0 1.7-1.6 6-1.6 6l-.2 3c.7.3 1.3.7 1.8 1.1 0 .5-.1.9-.2 1.3.1.2.2.4.2.7.1 1.4-7.4 20.5-8.6 22-1.3 1.5-13.8 3.9-15.8 3.9s-3.2 1.1-3.2 1.1l-1.9-.7 3.4 12.7 2.4 1.8 11.5 5.1s.7 1.5.1 3c-.6 1.6-2.1 4.3-2.1 4.3s7.3 2.6 8.2 3.1c.9.5 2.4 3.5 2.4 3.5l18.3 10.3s23.6 10.6 24.5 11.1c.9.5 20.4 15.4 20.4 15.4l4.4 1.5 5.7 5.7s6.3 2.5 8.4 3.5c2.2 1.1.8 6.9-3.7 7.4s-7.1.4-7.1.4l-2.5.6-5.4-3.7s-4.8-1.5-5.7-3.7c-1-2.2-6.5-4.9-6.5-4.9s-18.7-9.7-19.8-9.6c-1 .2-29-10.6-28.6-8.8.4 1.7 13.4 17.2 13.4 17.2s28.7 6.5 30 6.7c1.3.2 3.2-.8 3.2-.8s.7 1.1 1.5 2.5l2.5-.4s3.4-.4 4.3.4c.9.8 2.8 3.2 2.8 3.2s7.7 5.7 8.9 6.6c1.2.9 4.3 5.8-.9 6.9-5.2 1.1-4.3-.4-6.5-1.5s-7.4-3.7-8.7-3.9l-2-.4c-1.1 1.5-2.4 2.6-3.4 2.4-2.3-.4-4.5-2.8-5.5-3-1-.2-28.1-.3-31.2-2.2-2-1.2-18.9-14.8-30.5-24.1-1.8-1-4.4-2.6-5.3-2.8-.6-.1-1.6-1.8-2.5-3.5-1.9-1.6-3.1-2.5-3.1-2.5s-5.4 2.1-6.8 2.1c-1.4.1-7.7-13.1-8.2-14.2-.5-1.1-23.4-27-24.4-28.9-1-1.9-8.4-12.9-8.4-12.9s-20.8-9.8-22.5-11.1c-1.8-1.3-20.6-12.7-19.2-14.5 0 0 0-.1.1-.1-.5-.4-1-.9-1.1-1.3-.1-.2 0-.7.3-1.2-1.8-1.4-3.7-2.9-3.7-2.9s-3-.9-4.5-1.1c-1.5-.3-2.7-2.9-3-4-.5-.5-1.1-2-.9-3.3-.8-.9-.5-2.4 0-3.6-1.4-1.7.6-2.8 2.7-1.9zM18.5 47s26.7-23.9 29-26.7l2.4-2.7 31.4-7.5s5.9 17.3 7.5 19.6c-2.4 7.5-2.4 17.6-2.4 17.6S73 69.7 72.6 70.9c-.4 1.2-12.5 3.9-13.3 5.1-.8 1.2-12.9 15.7-14.9 16.5-2 .8-14.9.8-14.9.8L6 96.4 2 75.6 18.5 47z"/>
  <path class="st0" d="M56.3 68.4l1.5-1.2 31.1 36.7-1.4 1.3-31.2-36.8z"/>
  <path class="st0" d="M45.1 87.4l12.4-3.5 5.8-9.7.6.4-5.9 10-12.7 3.5-.2-.7z"/>
  <path class="st0" d="M48.2 80.3L64.7 76l.2.8-16.5 4.3-.2-.8zM79.9 114.4c-.4-.5-.3-1.1.2-1.5.5-.4 1.1-.3 1.5.2 1.5 2 4.4 2.4 6.4.8 2-1.5 2.4-4.4.8-6.4l-5.3-6.8c-.4-.5-.3-1.1.2-1.5.5-.4 1.1-.3 1.5.2l5.3 6.8c2.3 2.9 1.7 7.2-1.2 9.4-2.9 2.3-7.1 1.7-9.4-1.2z"/>
</svg>
