<svg xmlns="http://www.w3.org/2000/svg" viewBox="0 0 297.1 44.9">
  <path class="animation2" d="M4.3 10.2c2.1 7 3.7 14 5.4 21.8 1.9-7.9 4.1-15 5.8-21 .2-.8.5-1.6.5-2.4 0-.6.7-.8 1.5-.8 1 0 2.1.4 2.2.9.1.7.2.9.3 1.4 2.1 7.1 4.2 15.5 5.6 21.9 2.2-8 4-14.5 5.7-20.1.4-1.4.9-3.1 1.3-4.6.1-.3.4-.4.7-.4.9 0 2.5.8 2.5 1.6v.2c-1.2 2.8-3.1 8-7.8 24.1-.2.9-.5 1.9-.7 3-.2.7-.7 1-1.2 1-.9 0-2.2-.9-2.6-2.6-1.7-7.3-3.7-15.5-5.5-21.9-1.9 6-4 14-5.9 20.6-.2.8-.4 1.8-.8 3-.2.6-.7.9-1.2.9-.9 0-2-.9-2.5-2.6C5.4 24.6 1.9 11.6.4 8v-.2c0-.5.7-.7 1.4-.7.9 0 1.8.3 2 .8l.5 2.3zM41.3 28v.4c0 3.6 2 5.9 4.8 5.9 3.5 0 6.4-1.1 8.7-3.4.4-.5.7-.6.9-.6.2 0 .4.2.4.5 0 .9-3.2 6-10 6-4.2 0-7.5-3.3-7.5-8.7v-.6c-.5-.4-.9-.9-.9-1.3 0-.3.2-.5.8-.5h.4c.7-3.9 4.9-9.5 10.2-9.5 5.1 0 6.8 3 6.8 6 0 2.8-.3 3.5-3.9 4.6-2.5.8-5.9 1.3-10.2 1.3h-.5zm1.1-2.3c4.1 0 6.7-.6 8.5-1.1 2-.6 2.3-1.1 2.3-2.6 0-2.4-1.3-3.6-4.1-3.6-4 0-6.9 4.3-7.5 7.2h.8zM64.6 35c-.1.5-1.1 1.3-1.8 1.3-.4 0-.7-.2-.7-.8 0-.7.1-2.3.1-3.7v-20c0-1.7-.1-3.4-.1-4.3-.1-.4.2-.5.7-.5.9 0 2.2.5 2.2 1.2s-.2 2.2-.2 3.6V21c2.2-3.7 4.7-4.8 7.7-4.8 4.1 0 7 3 7 8.5 0 6.9-4.5 12.1-10 12.1-2.1 0-3.9-1-4.8-2.5l-.1.7zm.4-3.1c.3 0 .6.2.9.7 1.1 1.5 2.3 1.9 3.7 1.9 3 0 7.1-3.5 7.1-9.6 0-4.3-2.1-6.2-4.2-6.2-3.5 0-6.6 2.9-7.5 7.1-.3 1.4-.3 4.5-.3 6.2.1-.1.2-.1.3-.1zM129.6 15.9c0 .6-.4.8-1.4.8-2.7 0-5.9.2-9 .5 0 1-.1 1.8-.1 2.3-.4 11-7.1 15.7-12.2 18.1-.6.3-1 .5-1.4.5-.2 0-.3-.1-.5-.2v-.2c0-.3.4-.7 1.1-1.1 4.4-2.5 10-7.5 10.3-17.1 0-.4 0-1.1.1-1.9-2.6.2-5.1.5-7.5.8.1 2.6.2 5.2.3 8v.2c0 .2 0 1.9-1.1 1.9s-1.5-1.8-1.5-2V26c0-.3.1-.7.1-1.1 0-.4-.1-3.3-.3-6.5-3.1.4-5.8.8-7.7 1.1-.4.1-.7.1-1 .1-1.1 0-2.4-1.8-2.4-2.4 0-.2.2-.2.5-.2.4 0 1 .1 1.2.1h.9l8.4-1c0-2.2-.2-6.5-.2-6.5 0-.3-.2-.5-.3-.9-.2-.4-.6-.7-.6-1 .1-.2.4-.3.8-.3s.9.1 1.4.2c1 .2 1.1.8 1.1 1.6.1 2.3.2 4.5.3 6.6l7.6-.8c0-1.8.1-3.8.1-5.3V8.2c0-.3-.1-.6-.3-.9-.2-.5-.6-.7-.6-1.1V6c0-.2.3-.2.7-.2.4 0 1 .1 1.7.3.9.2 1 .6 1.1 1.5v.7c0 1.4 0 3.9-.1 6.4 2.4-.2 4.7-.4 6.8-.5.5 0 .9-.2 1.4-.2h.1c.6 0 1.9.9 2.1 1.7v.2zM154.3 35.8c0-.5.2-.9.2-1.1 0-.9.1-14.3.1-14.9 0-.3 0-.5-.1-.7-7.1 5-14.8 8.2-16.1 8.2-.2 0-.5 0-.5-.2v-.2c0-.3.5-.8 1.2-1.1 17.4-9.2 22.3-16.1 22.5-17.9v-.2c0-.4-.2-.7-.2-.9 0-.1 0-.2.1-.2.1-.2.3-.2.5-.2.6 0 3.2 1.1 3.2 2.2 0 .4-.2.9-.7 1.5-2.4 3-5.2 5.5-8 7.7 1.1.6 1.1.9 1.1 2.3 0 1.2-.1 15.3-.1 16.2 0 .9-.4 2.1-1 2.2h-.3c-1.3 0-1.6-2.3-1.7-2.6v-.1zM189.2 9.1c0-.5-.1-.8-.2-1.1-.2-.5-.6-.8-.6-1.2v-.2c0-.1.3-.2.7-.2.6 0 1.4.2 1.8.3 1 .4 1.1.9 1.1 1.8v9.3c4 .9 11.5 3.6 13 4.7.4.3.5.7.5 1 0 .8-.5 1.7-1.2 1.7-.4 0-.8-.2-1-.3-2.8-1.4-7.4-3.5-11.2-4.6v16.2c0 .9-.2 1.8-.9 2h-.2c-1.1 0-1.6-1.6-1.8-2.3v-.3c0-.5.3-.8.3-1.2V9.1zM235.8 27.6c1.7 1.4 3.2 2.7 4.9 3.8 2.3-1.3 3.7-2.6 4-3.4.1-.3.2-.5.5-.5.7 0 1.8 1.6 1.8 2.1 0 .2-.1.4-.3.5-1.3.9-2.7 1.8-4 2.5 3.1 1.8 6.6 3.3 11.8 4.6.5.1.7.3.7.5s-.1.4-.4.7c-.7.8-1 1.1-1.4 1.1-.1 0-.2 0-.4-.1-7.5-2.1-13.6-5.4-19.2-11-1 .7-1.9 1.4-2.9 2l-.2 6c2.3-.5 4.7-1.1 6.9-1.7.5-.1.8-.2 1.1-.2.4 0 .6.1.6.3 0 1-11.8 5-13.3 5-1 0-2.1-1.8-2.1-2.3 0-.2.1-.2.3-.2h.7c.6 0 1.9-.2 3.6-.5l.1-5c-4.8 2.6-10 3.7-10.9 3.7-.5 0-.7-.1-.7-.3 0-.2.5-.6 1.4-1 4.4-1.6 8.9-3.9 12.8-6.6l-9.8.5h-1.1c-.5 0-1.3 0-2-1.7-.1-.2-.1-.4-.1-.5 0-.2.1-.2.2-.2h.3c.5.1 1 .2 1.6.2h.3l13.5-.7v-.6c0-.6-.2-1-.5-1.4-.1-.2-.2-.4-.2-.5 0-.2.2-.3.6-.3.3 0 .7.1 1.2.2 1.2.3 1.3.6 1.3 1.1v1.4l12.4-.7c.6 0 1.2-.1 1.7-.3.1 0 .2-.1.4-.1.8 0 2.1 1.3 2.1 1.9 0 .3-.4.5-1 .5l-16.3 1.2zm-.3-10.7l-5 .2v6.6c0 .7-.2 1-.6 1-.8 0-1.8-.7-1.8-1.5 0-.2 0-.4.1-.6.1-.7.2-1.4.2-2.2v-3.2l-4.2.2.2 4.8v.1c0 .6-.2.8-.6.8-.6 0-1.8-.7-1.8-1.5v-.3c.1-.5.2-1.1.2-1.6v-.3l-.1-2c0-.7-.1-1.3-.3-1.8-.2-.3-.3-.6-.3-.8 0-.2.1-.2.3-.2.4 0 1.1.3 2.5.9l4.1-.2V13l-6.6.4h-1.3c-.4 0-.6-.1-.8-.2-.5-.4-.7-.7-.9-1.2-.1-.2-.1-.4-.1-.5s.1-.2.2-.2h.2c.5.2 1 .2 1.6.2h.3l7.3-.5V9.1l-4.1.2c-.1.1-2.3 2.3-2.7 2.3-.1 0-.2-.1-.2-.2 0-.2.1-.5.4-.9.2-.2 2.4-3.4 2.4-5.4 0-.3.1-.5.4-.5.7 0 2.2.9 2.2 1.5 0 .2-.4.8-.7 1.2l2.5-.2V5.5c0-.6-.1-1.1-.4-1.6-.1-.2-.1-.3-.1-.4 0-.2.2-.3.5-.3s2.3.2 2.3 1.4v2.5l3.1-.2c.5 0 .9-.2 1.4-.3.2-.1.4-.1.5-.1.7 0 1.9 1.1 1.9 1.7 0 .3-.4.4-1 .5l-6 .4V11l5.7-.3c.6 0 1.1-.1 1.6-.3.2 0 .3-.1.5-.1.7 0 1.9 1.1 1.9 1.7 0 .3-.4.4-.9.4l-8.7.5v2.3l5.6-.3h.3c.4 0 .6.1 1 .3.5.3.6.6.6.8 0 .3-.2.6-.2.9v3.6c0 1.5-1.1 1.9-1.6 1.9-1.4 0-4.4-2.7-4.4-3 0-.2.1-.2.4-.2.2 0 .5.1.9.2.7.2 1.7.5 2.5.7v-3.2zm5.4-8.9c0-.6-.1-1.1-.4-1.6-.1-.2-.1-.3-.1-.4 0-.2.2-.3.5-.3s.7.1 1.2.3c1 .4 1.1.6 1.1 1.1l.1 10c0 .7-.2 1-.7 1-.4 0-1.8-.3-1.8-1.4 0-.2 0-.5.1-.7.1-.8.2-1.6.2-2.2l-.2-5.8zm6-2.9c0-.6-.1-1.2-.4-1.7-.1-.2-.2-.3-.2-.5s.2-.3.5-.3.7.1 1.3.3c1 .4 1.1.7 1.1 1.2l-.1 16.4v1.4c0 .9-.6 1.8-1.7 1.8-1.4 0-5.8-3-5.8-3.6 0-.1.1-.2.3-.2.2 0 .7.1 1.2.3 1.1.4 2.5.7 3.6.9l.2-16zM264.7 18c-3.2 4.2-6.3 6.9-7.1 6.9-.2 0-.3-.1-.3-.3 0-.2.2-.6.5-1 6.1-7.4 10.6-16.6 10.6-18.9v-.5-.4c0-.3.1-.5.5-.5.8 0 2.9 1.1 2.9 2 0 .6-2 4.9-4.6 9l.1 23.9c0 .7-.3 1-.8 1 0 0-2-.2-2-1.9v-.4c.2-.8.2-1.5.2-2.3V18zm17.5 10.9v10.2c0 .6-.3.9-.7.9-.6 0-2.2-.5-2.2-1.8v-.3c.1-.8.2-1.6.2-2.5l.1-21.7-2.3.2c-3.8 6.5-7.4 9.6-8.1 9.6-.2 0-.2-.1-.2-.3s.1-.5.4-.9c5.6-7.7 8.9-16.5 8.9-18.5v-.6-.3c0-.3.1-.5.4-.5.7 0 2.9 1 2.9 1.9 0 .9-2 5.3-2.9 7.1l13.2-1c.5 0 1-.2 1.5-.4.1 0 .2-.1.4-.1.8 0 2.3 1.6 2.3 2 0 .4-.4.5-.9.6l-12.8.9v5.4l6.3-.4c.5 0 1-.2 1.6-.4.1 0 .2-.1.3-.1.8 0 2.3 1.5 2.3 2 0 .3-.4.5-.9.5l-9.6.6v5.5l7.2-.4c.6 0 1.1-.1 1.6-.4.1 0 .2-.1.4-.1 1 0 2.2 1.7 2.2 2 0 .4-.4.5-.9.6l-10.7.7z"/>
</svg>
